<svg xmlns="http://www.w3.org/2000/svg" viewBox="0 0 512 512">
  <!-- Jungle Green Circle Background -->
  <circle cx="256" cy="256" r="256" fill="#2E7D32"/>
  
  <!-- White Content Group -->
  <g fill="#FFFFFF">
    <!-- Question Mark Top Part -->
    <path d="M256,100c-60,0-100,40-100,100h60c0-30,20-50,40-50s40,20,40,50c0,30-40,45-40,90v10h60v-10c0-60,60-80,60-140
      C336,120,300,100,256,100z"/>
      
    <!-- Paw Print (Replacing the Dot) -->
    <g transform="translate(216, 340) scale(0.18)">
        <path d="M124.7,212.8c-44.5-9.8-77.5,13.6-73.6,52.3c3.9,38.7,48.2,57.7,92.7,67.6c44.5,9.8,77.5-13.6,73.6-52.3
            C213.6,241.6,169.2,222.7,124.7,212.8L124.7,212.8z"/>
        <path d="M43.7,163.6c-17-7.4-40.2-2.1-51.8,11.8c-11.6,13.9-8.4,34.4,8.6,41.8c17,7.4,40.2,2.1,51.8-11.7
            C63.9,191.6,60.7,171.1,43.7,163.6L43.7,163.6z"/>
        <path d="M102,126c-15.5-10.1-40.4-8.8-55.7,2.7c-15.3,11.6-18.7,33.5-3.2,43.6c15.5,10.1,40.4,8.8,55.7-2.7
            C114.1,158.1,117.5,136.2,102,126L102,126z"/>
        <path d="M192.5,116.1c-13.1-13.1-37.4-16.7-54.2-8.1c-16.8,8.6-23.7,30.3-10.6,43.4c13.1,13.1,37.4,16.7,54.2,8.1
            C198.7,150.9,205.6,129.2,192.5,116.1L192.5,116.1z"/>
        <path d="M259.9,150.1c-10.7-15.3-33-21.2-49.8-13.2c-16.8,7.9-25.2,28.6-14.5,43.9c10.7,15.3,33,21.2,49.8,13.2
            C262.3,186.2,270.7,165.4,259.9,150.1L259.9,150.1z"/>
    </g>
  </g>
</svg>
